<mxfile host="app.diagrams.net" modified="2023-06-01T13:07:04.924Z" agent="Mozilla/5.0 (Macintosh; Intel Mac OS X 10_15_7) AppleWebKit/537.36 (KHTML, like Gecko) Chrome/113.0.0.0 Safari/537.36" etag="6m12yuw44XtgAxDQB3Nh" version="21.3.6" type="github">
  <diagram name="Page-1" id="L2DuUV4c0xy7wRyJddh9">
    <mxGraphModel dx="1434" dy="710" grid="1" gridSize="10" guides="1" tooltips="1" connect="1" arrows="1" fold="1" page="1" pageScale="1" pageWidth="850" pageHeight="1100" math="0" shadow="0">
      <root>
        <mxCell id="0" />
        <mxCell id="1" parent="0" />
        <mxCell id="41iLBKp1xfuuZZX-Q_B5-1" value="" style="verticalLabelPosition=bottom;verticalAlign=top;html=1;shape=mxgraph.basic.patternFillRect;fillStyle=diag;step=5;fillStrokeWidth=0.2;fillStrokeColor=#dddddd;sketch=1;hachureGap=4;jiggle=2;curveFitting=1;fontFamily=Architects Daughter;fontSource=https%3A%2F%2Ffonts.googleapis.com%2Fcss%3Ffamily%3DArchitects%2BDaughter;fontSize=20;" vertex="1" parent="1">
          <mxGeometry x="454" y="40" width="906" height="460" as="geometry" />
        </mxCell>
        <mxCell id="41iLBKp1xfuuZZX-Q_B5-2" value="" style="rounded=0;whiteSpace=wrap;html=1;sketch=1;hachureGap=4;jiggle=2;curveFitting=1;fontFamily=Architects Daughter;fontSource=https%3A%2F%2Ffonts.googleapis.com%2Fcss%3Ffamily%3DArchitects%2BDaughter;fontSize=20;" vertex="1" parent="1">
          <mxGeometry x="772" y="90" width="357" height="170" as="geometry" />
        </mxCell>
        <mxCell id="41iLBKp1xfuuZZX-Q_B5-3" value="" style="rounded=0;whiteSpace=wrap;html=1;sketch=1;curveFitting=1;jiggle=2;" vertex="1" parent="1">
          <mxGeometry x="1010.5" y="125" width="92" height="110" as="geometry" />
        </mxCell>
        <mxCell id="41iLBKp1xfuuZZX-Q_B5-4" value="" style="rounded=0;whiteSpace=wrap;html=1;sketch=1;curveFitting=1;jiggle=2;" vertex="1" parent="1">
          <mxGeometry x="903.5" y="125" width="92" height="110" as="geometry" />
        </mxCell>
        <mxCell id="41iLBKp1xfuuZZX-Q_B5-5" value="" style="rounded=0;whiteSpace=wrap;html=1;sketch=1;hachureGap=4;jiggle=2;curveFitting=1;fontFamily=Architects Daughter;fontSource=https%3A%2F%2Ffonts.googleapis.com%2Fcss%3Ffamily%3DArchitects%2BDaughter;fontSize=20;" vertex="1" parent="1">
          <mxGeometry x="474" y="290" width="650" height="180" as="geometry" />
        </mxCell>
        <mxCell id="41iLBKp1xfuuZZX-Q_B5-6" value="" style="rounded=0;whiteSpace=wrap;html=1;sketch=1;hachureGap=4;jiggle=2;curveFitting=1;fontFamily=Architects Daughter;fontSource=https%3A%2F%2Ffonts.googleapis.com%2Fcss%3Ffamily%3DArchitects%2BDaughter;fontSize=20;" vertex="1" parent="1">
          <mxGeometry x="910" y="308.5" width="170" height="135" as="geometry" />
        </mxCell>
        <mxCell id="41iLBKp1xfuuZZX-Q_B5-7" style="edgeStyle=orthogonalEdgeStyle;rounded=0;sketch=1;hachureGap=4;jiggle=2;curveFitting=1;orthogonalLoop=1;jettySize=auto;html=1;exitX=1;exitY=0.5;exitDx=0;exitDy=0;exitPerimeter=0;entryX=-0.026;entryY=0.4;entryDx=0;entryDy=0;entryPerimeter=0;fontFamily=Architects Daughter;fontSource=https%3A%2F%2Ffonts.googleapis.com%2Fcss%3Ffamily%3DArchitects%2BDaughter;fontSize=16;" edge="1" parent="1" source="41iLBKp1xfuuZZX-Q_B5-9" target="41iLBKp1xfuuZZX-Q_B5-33">
          <mxGeometry relative="1" as="geometry" />
        </mxCell>
        <mxCell id="41iLBKp1xfuuZZX-Q_B5-8" value="&lt;font style=&quot;font-size: 10px;&quot;&gt;Sink&lt;br&gt;connector&lt;/font&gt;" style="edgeLabel;html=1;align=center;verticalAlign=middle;resizable=0;points=[];fontSize=20;fontFamily=Architects Daughter;" vertex="1" connectable="0" parent="41iLBKp1xfuuZZX-Q_B5-7">
          <mxGeometry x="-0.0394" relative="1" as="geometry">
            <mxPoint as="offset" />
          </mxGeometry>
        </mxCell>
        <mxCell id="41iLBKp1xfuuZZX-Q_B5-9" value="" style="verticalLabelPosition=bottom;verticalAlign=top;html=1;shape=mxgraph.basic.patternFillRect;fillStyle=diag;step=5;fillStrokeWidth=0.2;fillStrokeColor=#dddddd;sketch=1;hachureGap=4;jiggle=2;curveFitting=1;fontFamily=Architects Daughter;fontSource=https%3A%2F%2Ffonts.googleapis.com%2Fcss%3Ffamily%3DArchitects%2BDaughter;fontSize=20;" vertex="1" parent="1">
          <mxGeometry x="224" y="40" width="140" height="240" as="geometry" />
        </mxCell>
        <mxCell id="41iLBKp1xfuuZZX-Q_B5-10" value="" style="rounded=0;whiteSpace=wrap;html=1;sketch=1;curveFitting=1;jiggle=2;" vertex="1" parent="1">
          <mxGeometry x="797" y="125" width="92" height="110" as="geometry" />
        </mxCell>
        <mxCell id="41iLBKp1xfuuZZX-Q_B5-11" value="&lt;pre&gt;raw&lt;/pre&gt;" style="shape=datastore;whiteSpace=wrap;html=1;sketch=1;curveFitting=1;jiggle=2;" vertex="1" parent="1">
          <mxGeometry x="813" y="150" width="60" height="60" as="geometry" />
        </mxCell>
        <mxCell id="41iLBKp1xfuuZZX-Q_B5-12" value="&lt;pre&gt;curated&lt;/pre&gt;" style="shape=datastore;whiteSpace=wrap;html=1;sketch=1;curveFitting=1;jiggle=2;" vertex="1" parent="1">
          <mxGeometry x="919.5" y="150" width="60" height="60" as="geometry" />
        </mxCell>
        <mxCell id="41iLBKp1xfuuZZX-Q_B5-13" value="&lt;pre&gt;enriched&lt;/pre&gt;" style="shape=datastore;whiteSpace=wrap;html=1;sketch=1;curveFitting=1;jiggle=2;" vertex="1" parent="1">
          <mxGeometry x="1025.5" y="155" width="60" height="60" as="geometry" />
        </mxCell>
        <mxCell id="41iLBKp1xfuuZZX-Q_B5-14" value="" style="rounded=0;whiteSpace=wrap;html=1;sketch=1;curveFitting=1;jiggle=2;" vertex="1" parent="1">
          <mxGeometry x="228.5" y="300" width="130" height="200" as="geometry" />
        </mxCell>
        <mxCell id="41iLBKp1xfuuZZX-Q_B5-15" value="&lt;pre&gt;Kafka&lt;/pre&gt;" style="text;html=1;strokeColor=none;fillColor=none;align=center;verticalAlign=middle;whiteSpace=wrap;rounded=0;sketch=1;curveFitting=1;jiggle=2;" vertex="1" parent="1">
          <mxGeometry x="228.72000000000003" y="250" width="60" height="30" as="geometry" />
        </mxCell>
        <mxCell id="41iLBKp1xfuuZZX-Q_B5-16" value="" style="rounded=0;whiteSpace=wrap;html=1;sketch=1;curveFitting=1;jiggle=2;rotation=-90;" vertex="1" parent="1">
          <mxGeometry x="-30" y="110" width="232" height="100" as="geometry" />
        </mxCell>
        <mxCell id="41iLBKp1xfuuZZX-Q_B5-17" value="&lt;pre&gt;&lt;font style=&quot;font-size: 14px;&quot;&gt;SGBD&#39;s&lt;/font&gt;&lt;/pre&gt;" style="shape=datastore;whiteSpace=wrap;html=1;sketch=1;curveFitting=1;jiggle=2;" vertex="1" parent="1">
          <mxGeometry x="56" y="55" width="60" height="60" as="geometry" />
        </mxCell>
        <mxCell id="41iLBKp1xfuuZZX-Q_B5-18" value="&lt;font style=&quot;font-size: 14px;&quot;&gt;SaaS&lt;/font&gt;" style="shape=datastore;whiteSpace=wrap;html=1;sketch=1;curveFitting=1;jiggle=2;" vertex="1" parent="1">
          <mxGeometry x="56" y="200" width="60" height="60" as="geometry" />
        </mxCell>
        <mxCell id="41iLBKp1xfuuZZX-Q_B5-19" value="&lt;pre&gt;&lt;font style=&quot;font-size: 14px;&quot;&gt;PaaS&lt;/font&gt;&lt;/pre&gt;" style="shape=datastore;whiteSpace=wrap;html=1;sketch=1;curveFitting=1;jiggle=2;" vertex="1" parent="1">
          <mxGeometry x="56" y="128" width="60" height="60" as="geometry" />
        </mxCell>
        <mxCell id="41iLBKp1xfuuZZX-Q_B5-20" value="" style="shape=image;verticalLabelPosition=bottom;labelBackgroundColor=default;verticalAlign=top;aspect=fixed;imageAspect=0;image=https://miro.medium.com/v2/resize:fit:1006/1*foD1zloTjmIMouNqKiqb-A.png;" vertex="1" parent="1">
          <mxGeometry x="228.71999999999997" y="97" width="130.57" height="132" as="geometry" />
        </mxCell>
        <mxCell id="41iLBKp1xfuuZZX-Q_B5-21" value="&lt;pre&gt;&lt;font style=&quot;font-size: 16px;&quot;&gt;BigQuery&lt;/font&gt;&lt;/pre&gt;" style="text;html=1;strokeColor=none;fillColor=none;align=center;verticalAlign=middle;whiteSpace=wrap;rounded=0;fontSize=20;fontFamily=Architects Daughter;" vertex="1" parent="1">
          <mxGeometry x="789" y="85" width="60" height="30" as="geometry" />
        </mxCell>
        <mxCell id="41iLBKp1xfuuZZX-Q_B5-22" value="&lt;pre&gt;&lt;font style=&quot;font-size: 16px;&quot;&gt;Cloud Composer&lt;/font&gt;&lt;/pre&gt;" style="text;html=1;strokeColor=none;fillColor=none;align=center;verticalAlign=middle;whiteSpace=wrap;rounded=0;fontSize=20;fontFamily=Architects Daughter;" vertex="1" parent="1">
          <mxGeometry x="474.5" y="439" width="145" height="30" as="geometry" />
        </mxCell>
        <mxCell id="41iLBKp1xfuuZZX-Q_B5-23" value="" style="rounded=1;whiteSpace=wrap;html=1;sketch=1;hachureGap=4;jiggle=2;curveFitting=1;fontFamily=Architects Daughter;fontSource=https%3A%2F%2Ffonts.googleapis.com%2Fcss%3Ffamily%3DArchitects%2BDaughter;fontSize=20;" vertex="1" parent="1">
          <mxGeometry x="934.5" y="340" width="105" height="80" as="geometry" />
        </mxCell>
        <mxCell id="41iLBKp1xfuuZZX-Q_B5-24" value="&lt;pre&gt;&lt;font style=&quot;font-size: 12px;&quot;&gt;dbt&lt;/font&gt;&lt;/pre&gt;" style="shape=process;whiteSpace=wrap;html=1;backgroundOutline=1;sketch=1;hachureGap=4;jiggle=2;curveFitting=1;fontFamily=Architects Daughter;fontSource=https%3A%2F%2Ffonts.googleapis.com%2Fcss%3Ffamily%3DArchitects%2BDaughter;fontSize=20;" vertex="1" parent="1">
          <mxGeometry x="951" y="372" width="80" height="30" as="geometry" />
        </mxCell>
        <mxCell id="41iLBKp1xfuuZZX-Q_B5-25" value="&lt;pre&gt;&lt;font style=&quot;font-size: 14px;&quot;&gt;Docker&lt;/font&gt;&lt;/pre&gt;" style="text;html=1;strokeColor=none;fillColor=none;align=center;verticalAlign=middle;whiteSpace=wrap;rounded=0;fontSize=20;fontFamily=Architects Daughter;" vertex="1" parent="1">
          <mxGeometry x="957.5" y="340" width="60" height="30" as="geometry" />
        </mxCell>
        <mxCell id="41iLBKp1xfuuZZX-Q_B5-26" value="&lt;pre style=&quot;border-color: var(--border-color);&quot;&gt;&lt;font style=&quot;border-color: var(--border-color); font-size: 14px;&quot;&gt;KubernetesOperator&lt;/font&gt;&lt;/pre&gt;" style="text;html=1;strokeColor=none;fillColor=none;align=center;verticalAlign=middle;whiteSpace=wrap;rounded=0;fontSize=20;fontFamily=Architects Daughter;" vertex="1" parent="1">
          <mxGeometry x="923.5" y="302" width="150" height="30" as="geometry" />
        </mxCell>
        <mxCell id="41iLBKp1xfuuZZX-Q_B5-27" value="" style="endArrow=classic;html=1;rounded=0;sketch=1;hachureGap=4;jiggle=2;curveFitting=1;fontFamily=Architects Daughter;fontSource=https%3A%2F%2Ffonts.googleapis.com%2Fcss%3Ffamily%3DArchitects%2BDaughter;fontSize=16;entryX=0.25;entryY=1;entryDx=0;entryDy=0;" edge="1" parent="1" target="41iLBKp1xfuuZZX-Q_B5-4">
          <mxGeometry width="50" height="50" relative="1" as="geometry">
            <mxPoint x="927" y="310" as="sourcePoint" />
            <mxPoint x="926.5" y="198" as="targetPoint" />
          </mxGeometry>
        </mxCell>
        <mxCell id="41iLBKp1xfuuZZX-Q_B5-28" value="" style="endArrow=classic;html=1;rounded=0;sketch=1;hachureGap=4;jiggle=2;curveFitting=1;fontFamily=Architects Daughter;fontSource=https%3A%2F%2Ffonts.googleapis.com%2Fcss%3Ffamily%3DArchitects%2BDaughter;fontSize=16;exitX=0.625;exitY=1;exitDx=0;exitDy=0;exitPerimeter=0;" edge="1" parent="1" source="41iLBKp1xfuuZZX-Q_B5-4">
          <mxGeometry width="50" height="50" relative="1" as="geometry">
            <mxPoint x="964" y="230" as="sourcePoint" />
            <mxPoint x="961" y="310" as="targetPoint" />
          </mxGeometry>
        </mxCell>
        <mxCell id="41iLBKp1xfuuZZX-Q_B5-29" value="" style="endArrow=classic;html=1;rounded=0;sketch=1;hachureGap=4;jiggle=2;curveFitting=1;fontFamily=Architects Daughter;fontSource=https%3A%2F%2Ffonts.googleapis.com%2Fcss%3Ffamily%3DArchitects%2BDaughter;fontSize=16;" edge="1" parent="1">
          <mxGeometry width="50" height="50" relative="1" as="geometry">
            <mxPoint x="1027" y="310" as="sourcePoint" />
            <mxPoint x="1027" y="230" as="targetPoint" />
          </mxGeometry>
        </mxCell>
        <mxCell id="41iLBKp1xfuuZZX-Q_B5-30" value="&lt;pre style=&quot;margin: 0 0 0 40px; border: none; padding: 0px;&quot;&gt;GCP&lt;/pre&gt;" style="text;html=1;strokeColor=none;fillColor=none;align=left;verticalAlign=middle;whiteSpace=wrap;rounded=0;fontSize=20;fontFamily=Architects Daughter;" vertex="1" parent="1">
          <mxGeometry x="424" y="40" width="70" height="30" as="geometry" />
        </mxCell>
        <mxCell id="41iLBKp1xfuuZZX-Q_B5-31" value="&lt;pre&gt;&lt;font style=&quot;font-size: 14px;&quot;&gt;API`s&lt;/font&gt;&lt;/pre&gt;" style="shape=datastore;whiteSpace=wrap;html=1;sketch=1;curveFitting=1;jiggle=2;" vertex="1" parent="1">
          <mxGeometry x="263.22" y="363.5" width="60" height="60" as="geometry" />
        </mxCell>
        <mxCell id="41iLBKp1xfuuZZX-Q_B5-32" value="" style="endArrow=classic;html=1;rounded=0;sketch=1;hachureGap=4;jiggle=2;curveFitting=1;fontFamily=Architects Daughter;fontSource=https%3A%2F%2Ffonts.googleapis.com%2Fcss%3Ffamily%3DArchitects%2BDaughter;fontSize=16;exitX=0.848;exitY=0.982;exitDx=0;exitDy=0;exitPerimeter=0;entryX=-0.006;entryY=0.181;entryDx=0;entryDy=0;entryPerimeter=0;" edge="1" parent="1" target="41iLBKp1xfuuZZX-Q_B5-6">
          <mxGeometry width="50" height="50" relative="1" as="geometry">
            <mxPoint x="884.0160000000001" y="233.01999999999998" as="sourcePoint" />
            <mxPoint x="884" y="310" as="targetPoint" />
            <Array as="points">
              <mxPoint x="884" y="333" />
            </Array>
          </mxGeometry>
        </mxCell>
        <mxCell id="41iLBKp1xfuuZZX-Q_B5-33" value="" style="rounded=0;whiteSpace=wrap;html=1;sketch=1;hachureGap=4;jiggle=2;curveFitting=1;fontFamily=Architects Daughter;fontSource=https%3A%2F%2Ffonts.googleapis.com%2Fcss%3Ffamily%3DArchitects%2BDaughter;fontSize=20;" vertex="1" parent="1">
          <mxGeometry x="474" y="90" width="270" height="170" as="geometry" />
        </mxCell>
        <mxCell id="41iLBKp1xfuuZZX-Q_B5-34" value="&lt;pre&gt;&lt;font style=&quot;font-size: 16px;&quot;&gt;GCS&lt;/font&gt;&lt;/pre&gt;" style="text;html=1;strokeColor=none;fillColor=none;align=center;verticalAlign=middle;whiteSpace=wrap;rounded=0;fontSize=20;fontFamily=Architects Daughter;" vertex="1" parent="1">
          <mxGeometry x="474" y="88" width="60" height="30" as="geometry" />
        </mxCell>
        <mxCell id="41iLBKp1xfuuZZX-Q_B5-35" value="" style="rounded=0;whiteSpace=wrap;html=1;sketch=1;hachureGap=4;jiggle=2;curveFitting=1;fontFamily=Architects Daughter;fontSource=https%3A%2F%2Ffonts.googleapis.com%2Fcss%3Ffamily%3DArchitects%2BDaughter;fontSize=20;" vertex="1" parent="1">
          <mxGeometry x="504" y="307.5" width="170" height="135" as="geometry" />
        </mxCell>
        <mxCell id="41iLBKp1xfuuZZX-Q_B5-36" value="" style="rounded=1;whiteSpace=wrap;html=1;sketch=1;hachureGap=4;jiggle=2;curveFitting=1;fontFamily=Architects Daughter;fontSource=https%3A%2F%2Ffonts.googleapis.com%2Fcss%3Ffamily%3DArchitects%2BDaughter;fontSize=20;" vertex="1" parent="1">
          <mxGeometry x="528.5" y="339" width="105" height="80" as="geometry" />
        </mxCell>
        <mxCell id="41iLBKp1xfuuZZX-Q_B5-37" value="&lt;pre&gt;&lt;font style=&quot;font-size: 12px;&quot;&gt;Python&lt;/font&gt;&lt;/pre&gt;" style="shape=process;whiteSpace=wrap;html=1;backgroundOutline=1;sketch=1;hachureGap=4;jiggle=2;curveFitting=1;fontFamily=Architects Daughter;fontSource=https%3A%2F%2Ffonts.googleapis.com%2Fcss%3Ffamily%3DArchitects%2BDaughter;fontSize=20;" vertex="1" parent="1">
          <mxGeometry x="545" y="371" width="80" height="30" as="geometry" />
        </mxCell>
        <mxCell id="41iLBKp1xfuuZZX-Q_B5-38" value="&lt;pre&gt;&lt;font style=&quot;font-size: 14px;&quot;&gt;Docker&lt;/font&gt;&lt;/pre&gt;" style="text;html=1;strokeColor=none;fillColor=none;align=center;verticalAlign=middle;whiteSpace=wrap;rounded=0;fontSize=20;fontFamily=Architects Daughter;" vertex="1" parent="1">
          <mxGeometry x="551.5" y="339" width="60" height="30" as="geometry" />
        </mxCell>
        <mxCell id="41iLBKp1xfuuZZX-Q_B5-39" value="&lt;pre style=&quot;border-color: var(--border-color);&quot;&gt;&lt;font style=&quot;border-color: var(--border-color); font-size: 14px;&quot;&gt;KubernetesOperator&lt;/font&gt;&lt;/pre&gt;" style="text;html=1;strokeColor=none;fillColor=none;align=center;verticalAlign=middle;whiteSpace=wrap;rounded=0;fontSize=20;fontFamily=Architects Daughter;" vertex="1" parent="1">
          <mxGeometry x="517.5" y="301" width="150" height="30" as="geometry" />
        </mxCell>
        <mxCell id="41iLBKp1xfuuZZX-Q_B5-40" style="edgeStyle=orthogonalEdgeStyle;rounded=0;sketch=1;hachureGap=4;jiggle=2;curveFitting=1;orthogonalLoop=1;jettySize=auto;html=1;exitX=1;exitY=0.5;exitDx=0;exitDy=0;exitPerimeter=0;fontFamily=Architects Daughter;fontSource=https%3A%2F%2Ffonts.googleapis.com%2Fcss%3Ffamily%3DArchitects%2BDaughter;fontSize=16;entryX=0.09;entryY=0.158;entryDx=0;entryDy=0;entryPerimeter=0;" edge="1" parent="1" source="41iLBKp1xfuuZZX-Q_B5-41" target="41iLBKp1xfuuZZX-Q_B5-49">
          <mxGeometry relative="1" as="geometry">
            <Array as="points">
              <mxPoint x="734" y="175" />
            </Array>
          </mxGeometry>
        </mxCell>
        <mxCell id="41iLBKp1xfuuZZX-Q_B5-41" value="" style="shape=cylinder3;whiteSpace=wrap;html=1;boundedLbl=1;backgroundOutline=1;size=15;sketch=1;hachureGap=4;jiggle=2;curveFitting=1;fontFamily=Architects Daughter;fontSource=https%3A%2F%2Ffonts.googleapis.com%2Fcss%3Ffamily%3DArchitects%2BDaughter;fontSize=20;" vertex="1" parent="1">
          <mxGeometry x="560" y="135" width="108" height="80" as="geometry" />
        </mxCell>
        <mxCell id="41iLBKp1xfuuZZX-Q_B5-42" style="edgeStyle=orthogonalEdgeStyle;rounded=0;sketch=1;hachureGap=4;jiggle=2;curveFitting=1;orthogonalLoop=1;jettySize=auto;html=1;fontFamily=Architects Daughter;fontSource=https%3A%2F%2Ffonts.googleapis.com%2Fcss%3Ffamily%3DArchitects%2BDaughter;fontSize=16;" edge="1" parent="1">
          <mxGeometry relative="1" as="geometry">
            <mxPoint x="364" y="393" as="sourcePoint" />
            <mxPoint x="504" y="394" as="targetPoint" />
          </mxGeometry>
        </mxCell>
        <mxCell id="41iLBKp1xfuuZZX-Q_B5-43" value="&lt;pre style=&quot;margin: 0 0 0 40px; border: none; padding: 0px;&quot;&gt;Confluent&lt;/pre&gt;" style="text;html=1;strokeColor=none;fillColor=none;align=left;verticalAlign=middle;whiteSpace=wrap;rounded=0;fontSize=20;fontFamily=Architects Daughter;" vertex="1" parent="1">
          <mxGeometry x="193.22" y="40" width="70" height="30" as="geometry" />
        </mxCell>
        <mxCell id="41iLBKp1xfuuZZX-Q_B5-44" value="&lt;font style=&quot;font-size: 10px;&quot;&gt;Source &lt;br&gt;connectors&lt;/font&gt;" style="endArrow=classic;html=1;rounded=0;sketch=1;hachureGap=4;jiggle=2;curveFitting=1;fontFamily=Architects Daughter;fontSource=https%3A%2F%2Ffonts.googleapis.com%2Fcss%3Ffamily%3DArchitects%2BDaughter;fontSize=16;entryX=0;entryY=0.5;entryDx=0;entryDy=0;entryPerimeter=0;exitX=0.5;exitY=1;exitDx=0;exitDy=0;" edge="1" parent="1" source="41iLBKp1xfuuZZX-Q_B5-16" target="41iLBKp1xfuuZZX-Q_B5-9">
          <mxGeometry width="50" height="50" relative="1" as="geometry">
            <mxPoint x="34" y="400" as="sourcePoint" />
            <mxPoint x="84" y="350" as="targetPoint" />
          </mxGeometry>
        </mxCell>
        <mxCell id="41iLBKp1xfuuZZX-Q_B5-45" value="" style="rounded=0;whiteSpace=wrap;html=1;sketch=1;hachureGap=4;jiggle=2;curveFitting=1;fontFamily=Architects Daughter;fontSource=https%3A%2F%2Ffonts.googleapis.com%2Fcss%3Ffamily%3DArchitects%2BDaughter;fontSize=20;" vertex="1" parent="1">
          <mxGeometry x="707" y="311.75" width="170" height="135" as="geometry" />
        </mxCell>
        <mxCell id="41iLBKp1xfuuZZX-Q_B5-46" value="" style="rounded=1;whiteSpace=wrap;html=1;sketch=1;hachureGap=4;jiggle=2;curveFitting=1;fontFamily=Architects Daughter;fontSource=https%3A%2F%2Ffonts.googleapis.com%2Fcss%3Ffamily%3DArchitects%2BDaughter;fontSize=20;" vertex="1" parent="1">
          <mxGeometry x="731.5" y="343.25" width="105" height="80" as="geometry" />
        </mxCell>
        <mxCell id="41iLBKp1xfuuZZX-Q_B5-47" value="&lt;pre&gt;&lt;font style=&quot;font-size: 12px;&quot;&gt;Python&lt;/font&gt;&lt;/pre&gt;" style="shape=process;whiteSpace=wrap;html=1;backgroundOutline=1;sketch=1;hachureGap=4;jiggle=2;curveFitting=1;fontFamily=Architects Daughter;fontSource=https%3A%2F%2Ffonts.googleapis.com%2Fcss%3Ffamily%3DArchitects%2BDaughter;fontSize=20;" vertex="1" parent="1">
          <mxGeometry x="748" y="375.25" width="80" height="30" as="geometry" />
        </mxCell>
        <mxCell id="41iLBKp1xfuuZZX-Q_B5-48" value="&lt;pre&gt;&lt;font style=&quot;font-size: 14px;&quot;&gt;Docker&lt;/font&gt;&lt;/pre&gt;" style="text;html=1;strokeColor=none;fillColor=none;align=center;verticalAlign=middle;whiteSpace=wrap;rounded=0;fontSize=20;fontFamily=Architects Daughter;" vertex="1" parent="1">
          <mxGeometry x="754.5" y="343.25" width="60" height="30" as="geometry" />
        </mxCell>
        <mxCell id="41iLBKp1xfuuZZX-Q_B5-49" value="&lt;pre style=&quot;border-color: var(--border-color);&quot;&gt;&lt;font style=&quot;border-color: var(--border-color); font-size: 14px;&quot;&gt;KubernetesOperator&lt;/font&gt;&lt;/pre&gt;" style="text;html=1;strokeColor=none;fillColor=none;align=center;verticalAlign=middle;whiteSpace=wrap;rounded=0;fontSize=20;fontFamily=Architects Daughter;" vertex="1" parent="1">
          <mxGeometry x="720.5" y="305.25" width="150" height="30" as="geometry" />
        </mxCell>
        <mxCell id="41iLBKp1xfuuZZX-Q_B5-50" value="" style="endArrow=classic;html=1;rounded=0;sketch=1;hachureGap=4;jiggle=2;curveFitting=1;fontFamily=Architects Daughter;fontSource=https%3A%2F%2Ffonts.googleapis.com%2Fcss%3Ffamily%3DArchitects%2BDaughter;fontSize=16;entryX=0.15;entryY=0.383;entryDx=0;entryDy=0;entryPerimeter=0;" edge="1" parent="1">
          <mxGeometry width="50" height="50" relative="1" as="geometry">
            <mxPoint x="597" y="310" as="sourcePoint" />
            <mxPoint x="598" y="216.18000000000006" as="targetPoint" />
          </mxGeometry>
        </mxCell>
        <mxCell id="41iLBKp1xfuuZZX-Q_B5-51" value="" style="endArrow=classic;html=1;rounded=0;sketch=1;hachureGap=4;jiggle=2;curveFitting=1;fontFamily=Architects Daughter;fontSource=https%3A%2F%2Ffonts.googleapis.com%2Fcss%3Ffamily%3DArchitects%2BDaughter;fontSize=16;entryX=0.391;entryY=0.982;entryDx=0;entryDy=0;entryPerimeter=0;" edge="1" parent="1" target="41iLBKp1xfuuZZX-Q_B5-10">
          <mxGeometry width="50" height="50" relative="1" as="geometry">
            <mxPoint x="833" y="314" as="sourcePoint" />
            <mxPoint x="834" y="240" as="targetPoint" />
          </mxGeometry>
        </mxCell>
        <mxCell id="41iLBKp1xfuuZZX-Q_B5-52" value="" style="rounded=0;whiteSpace=wrap;html=1;sketch=1;hachureGap=4;jiggle=2;curveFitting=1;fontFamily=Architects Daughter;fontSource=https%3A%2F%2Ffonts.googleapis.com%2Fcss%3Ffamily%3DArchitects%2BDaughter;fontSize=20;" vertex="1" parent="1">
          <mxGeometry x="1184" y="90" width="156" height="379" as="geometry" />
        </mxCell>
        <mxCell id="41iLBKp1xfuuZZX-Q_B5-53" value="Visualisation" style="shape=image;verticalLabelPosition=bottom;labelBackgroundColor=default;verticalAlign=top;aspect=fixed;imageAspect=0;image=https://cdn-icons-png.flaticon.com/512/6332/6332211.png;sketch=1;curveFitting=1;jiggle=2;fontFamily=Courier New;" vertex="1" parent="1">
          <mxGeometry x="1224" y="227.5" width="80" height="80" as="geometry" />
        </mxCell>
        <mxCell id="41iLBKp1xfuuZZX-Q_B5-54" value="Discovery" style="shape=image;verticalLabelPosition=bottom;labelBackgroundColor=default;verticalAlign=top;aspect=fixed;imageAspect=0;image=https://cdn-icons-png.flaticon.com/512/1570/1570889.png;fontFamily=Courier New;fontSource=https%3A%2F%2Ffonts.googleapis.com%2Fcss%3Ffamily%3DArchitects%2BDaughter;" vertex="1" parent="1">
          <mxGeometry x="1224" y="110" width="80" height="80" as="geometry" />
        </mxCell>
        <mxCell id="41iLBKp1xfuuZZX-Q_B5-55" value="Reporting" style="shape=image;verticalLabelPosition=bottom;labelBackgroundColor=default;verticalAlign=top;aspect=fixed;imageAspect=0;image=https://cdn-icons-png.flaticon.com/512/2830/2830510.png;fontFamily=Courier New;fontSource=https%3A%2F%2Ffonts.googleapis.com%2Fcss%3Ffamily%3DArchitects%2BDaughter;" vertex="1" parent="1">
          <mxGeometry x="1214" y="348.5" width="90" height="90" as="geometry" />
        </mxCell>
        <mxCell id="41iLBKp1xfuuZZX-Q_B5-56" value="" style="endArrow=classic;html=1;rounded=0;sketch=1;hachureGap=4;jiggle=2;curveFitting=1;fontFamily=Architects Daughter;fontSource=https%3A%2F%2Ffonts.googleapis.com%2Fcss%3Ffamily%3DArchitects%2BDaughter;fontSize=16;" edge="1" parent="1">
          <mxGeometry width="50" height="50" relative="1" as="geometry">
            <mxPoint x="1134" y="177" as="sourcePoint" />
            <mxPoint x="1184" y="177" as="targetPoint" />
          </mxGeometry>
        </mxCell>
      </root>
    </mxGraphModel>
  </diagram>
</mxfile>
